<svg xmlns="http://www.w3.org/2000/svg" viewBox="0 0 754.72 226.19"><defs><style>.cls-1{fill:#333;}</style></defs><g id="Livello_2" data-name="Livello 2"><g id="Livello_1-2" data-name="Livello 1"><g id="Logo_oriz_notomia"><path class="cls-1" d="M350.26,146.62V56.91l61,63.88V62.58H424.1v89.21l-61-63.88v58.71Z"/><path class="cls-1" d="M492.77,120.16c0,16.26-12.35,28.1-28.36,28.1s-28.35-11.84-28.35-28.1,12.35-28,28.35-28S492.77,103.78,492.77,120.16Zm-12.6.13c0-12.1-7.94-17-15.76-17s-15.75,4.91-15.75,17c0,10.21,6,16.88,15.75,16.88S480.17,130.5,480.17,120.29Z"/><path class="cls-1" d="M515.19,104.92v41.7H502.84V74.17h12.35V93.58h9.45v11.34Z"/><path class="cls-1" d="M583.74,120.16c0,16.26-12.35,28.1-28.36,28.1S527,136.42,527,120.16s12.35-28,28.35-28S583.74,103.78,583.74,120.16Zm-12.6.13c0-12.1-7.94-17-15.76-17s-15.75,4.91-15.75,17c0,10.21,6,16.88,15.75,16.88S571.14,130.5,571.14,120.29Z"/><path class="cls-1" d="M593.44,93.58h12.34v4.91a16.36,16.36,0,0,1,13.11-6.3A15.58,15.58,0,0,1,632.62,100a18.79,18.79,0,0,1,15.75-7.81c6.43,0,12.1,3,15.13,8.32,1,1.76,2.77,5.67,2.77,13.35v32.76H653.92V117.39c0-5.92-.63-8.32-1.14-9.45a7,7,0,0,0-7-4.66,9.14,9.14,0,0,0-7.31,3.9c-2.14,3-2.39,7.56-2.39,12.1v27.34H623.68V117.39c0-5.92-.63-8.32-1.14-9.45a7,7,0,0,0-7-4.66,9.14,9.14,0,0,0-7.31,3.9c-2.14,3-2.4,7.56-2.4,12.1v27.34H593.44Z"/><path class="cls-1" d="M684.91,63.71A7.94,7.94,0,1,1,677,71.65,7.75,7.75,0,0,1,684.91,63.71Zm6.18,29.87v53H678.74v-53Z"/><path class="cls-1" d="M742.37,93.58h12.35v53H742.37v-5.54a20.38,20.38,0,0,1-15.88,7.18c-16.38,0-25.71-13.61-25.71-28.22,0-17.27,11.85-27.85,25.84-27.85a19.35,19.35,0,0,1,15.75,7.56Zm-29,26.71c0,9.2,5.79,16.88,14.74,16.88,7.81,0,15-5.67,15-16.75,0-11.6-7.18-17.14-15-17.14C719.18,103.28,713.39,110.84,713.39,120.29Z"/><polygon class="cls-1" points="0 0 0 113.09 0 226.19 113.09 226.19 0 0"/><path class="cls-1" d="M169.64,169.64a56.54,56.54,0,0,1,56.55-56.54V0H124V226.19H226.19A56.55,56.55,0,0,1,169.64,169.64Z"/><path class="cls-1" d="M226.19,113.1V226.19a56.55,56.55,0,1,0,0-113.09Z"/></g></g></g></svg>